<svg viewBox="0 0 1024 1024" xmlns="http://www.w3.org/2000/svg">
  <path d="M67.669333 0a42.666667 42.666667 0 0 1 30.165334 12.501333L149.333333 64C190.293333 104.96 245.888 128 303.829333 128h416.341334c57.941333 0 113.493333-23.04 154.496-64L926.165333 12.501333A42.666667 42.666667 0 0 1 956.330667 0H981.333333a42.666667 42.666667 0 0 1 42.666667 42.666667v186.965333a42.666667 42.666667 0 0 1-23.594667 38.144l-45.952 22.997333a42.666667 42.666667 0 0 0-21.376 24.661334l-27.349333 82.048a42.666667 42.666667 0 0 1-40.490667 29.184H853.333333v85.333333h42.666667a42.666667 42.666667 0 0 1 42.666667 42.666667v42.666666a42.666667 42.666667 0 0 1-42.666667 42.666667h-42.666667v341.333333a42.666667 42.666667 0 0 1-42.666666 42.666667h-128a42.666667 42.666667 0 0 1-42.666667-42.666667v-341.333333H384v341.333333a42.666667 42.666667 0 0 1-42.666667 42.666667H213.333333a42.666667 42.666667 0 0 1-42.666666-42.666667v-341.333333H128a42.666667 42.666667 0 0 1-42.666667-42.666667v-42.666666a42.666667 42.666667 0 0 1 42.666667-42.666667h42.666667v-85.333333h-11.946667a42.666667 42.666667 0 0 1-40.448-29.184l-27.349333-82.048a42.666667 42.666667 0 0 0-21.376-24.661334L23.594667 267.776A42.666667 42.666667 0 0 1 0 229.632V42.666667a42.666667 42.666667 0 0 1 42.666667-42.666667h25.002666zM640 341.333333H384a42.666667 42.666667 0 0 0 0 85.333334h256a42.666667 42.666667 0 0 0 0-85.333334z" fill="#F25C62"/>
</svg>
